<svg width="57" height="58" viewBox="0 0 57 58" fill="none" xmlns="http://www.w3.org/2000/svg">
<circle cx="55" cy="5" r="2" fill="#E21B1B"/>
<circle cx="4" cy="1" r="1" fill="#E21B1B"/>
<circle cx="54" cy="57" r="1" fill="#E21B1B"/>
<circle cx="4.5" cy="52.5" r="4.5" fill="#E21B1B"/>
<g clip-path="url(#clip0_601_26810)">
<path d="M28 50C39.0457 50 48 41.0457 48 30C48 18.9543 39.0457 10 28 10C16.9543 10 8 18.9543 8 30C8 41.0457 16.9543 50 28 50Z" fill="#E21B1B"/>
<path d="M47.8658 32.2895L36.7433 21.167L19.7383 38.7976L30.7483 49.8076C39.7464 48.5701 46.8327 41.3507 47.8658 32.2895Z" fill="#C40606"/>
<path d="M35.684 39.0255C35.284 39.0255 34.8846 38.873 34.579 38.568L19.4365 23.4249C18.8259 22.8143 18.8259 21.8255 19.4365 21.2155C20.0471 20.6055 21.0359 20.6049 21.6459 21.2155L36.789 36.3587C37.3996 36.9693 37.3996 37.958 36.789 38.568C36.4834 38.873 36.084 39.0255 35.684 39.0255Z" fill="white"/>
<path d="M20.5415 39.0258C20.1415 39.0258 19.7421 38.8733 19.4365 38.5683C18.8259 37.9577 18.8259 36.9689 19.4365 36.3589L34.5796 21.2158C35.1902 20.6052 36.179 20.6052 36.789 21.2158C37.399 21.8264 37.3996 22.8152 36.789 23.4252L21.6465 38.5683C21.3415 38.8733 20.9415 39.0258 20.5415 39.0258Z" fill="white"/>
</g>
<defs>
<clipPath id="clip0_601_26810">
<rect width="40" height="40" fill="white" transform="translate(8 10)"/>
</clipPath>
</defs>
</svg>
