<svg width="32" height="34" viewBox="0 0 32 34" fill="none" xmlns="http://www.w3.org/2000/svg">
<path d="M13.2851 5.79232C14.3645 3.49059 17.6381 3.49059 18.7175 5.79232L20.2147 8.98516C20.6392 9.8903 21.4866 10.5245 22.4747 10.6766L26.0728 11.2302C28.4845 11.6012 29.468 14.5431 27.7642 16.29L24.9747 19.1499C24.3101 19.8313 24.0083 20.7876 24.1614 21.7271L24.7923 25.5992C25.1951 28.0715 22.5699 29.9195 20.3784 28.7063L17.4542 27.0876C16.5503 26.5872 15.4524 26.5872 14.5484 27.0876L11.6242 28.7063C9.43275 29.9195 6.80752 28.0715 7.21034 25.5992L7.84125 21.7271C7.99432 20.7876 7.69251 19.8313 7.02792 19.1499L4.23843 16.29C2.53465 14.5431 3.51808 11.6012 5.92984 11.2302L9.52791 10.6766C10.516 10.5245 11.3634 9.8903 11.7879 8.98516L13.2851 5.79232Z" fill="#FEAD1D"/>
<circle cx="28.5" cy="2.5" r="1.5" fill="#FEAD1D"/>
<circle opacity="0.5" cx="12" cy="32.667" r="1" fill="#FEAD1D"/>
<circle cx="2" cy="22.667" r="2" fill="#FEAD1D"/>
<circle opacity="0.6" cx="27.5" cy="27.167" r="0.5" fill="#FEAD1D"/>
<circle cx="8.5" cy="7.5" r="0.5" fill="#FEAD1D"/>
</svg>
