<svg width="132" height="145" viewBox="0 0 132 145" fill="none" xmlns="http://www.w3.org/2000/svg">
<g filter="url(#filter0_d_601_22454)">
<rect x="25" y="24" width="45" height="45" rx="15" fill="white"/>
</g>
<path d="M46.343 45.4749C45.9525 45.8655 45.9525 46.4986 46.343 46.8892L51.2929 51.8391C51.6834 52.2296 51.6834 52.8628 51.2929 53.2533L50.8892 53.657C50.4986 54.0475 49.8655 54.0475 49.475 53.657L42.7071 46.8892C42.3166 46.4986 42.3166 45.8655 42.7071 45.4749L49.4749 38.7071C49.8655 38.3166 50.4986 38.3166 50.8892 38.7071L51.2929 39.1108C51.6834 39.5014 51.6834 40.1345 51.2929 40.5251L46.343 45.4749Z" fill="#DA6317"/>
<defs>
<filter id="filter0_d_601_22454" x="-13" y="0" width="145" height="145" filterUnits="userSpaceOnUse" color-interpolation-filters="sRGB">
<feFlood flood-opacity="0" result="BackgroundImageFix"/>
<feColorMatrix in="SourceAlpha" type="matrix" values="0 0 0 0 0 0 0 0 0 0 0 0 0 0 0 0 0 0 127 0" result="hardAlpha"/>
<feOffset dx="12" dy="26"/>
<feGaussianBlur stdDeviation="25"/>
<feColorMatrix type="matrix" values="0 0 0 0 0.352941 0 0 0 0 0.423529 0 0 0 0 0.917647 0 0 0 0.07 0"/>
<feBlend mode="normal" in2="BackgroundImageFix" result="effect1_dropShadow_601_22454"/>
<feBlend mode="normal" in="SourceGraphic" in2="effect1_dropShadow_601_22454" result="shape"/>
</filter>
</defs>
</svg>
