<svg width="28" height="26" viewBox="0 0 28 26" fill="none" xmlns="http://www.w3.org/2000/svg">
<g opacity="0.5">
<path opacity="0.4" fill-rule="evenodd" clip-rule="evenodd" d="M5.91016 22.5884C5.91016 21.7484 6.59016 21.0684 7.43016 21.0684C8.26016 21.0684 8.94016 21.7484 8.94016 22.5884C8.94016 23.4184 8.26016 24.0984 7.43016 24.0984C6.59016 24.0984 5.91016 23.4184 5.91016 22.5884ZM17.1602 22.5884C17.1602 21.7484 17.8402 21.0684 18.6802 21.0684C19.5102 21.0684 20.1902 21.7484 20.1902 22.5884C20.1902 23.4184 19.5102 24.0984 18.6802 24.0984C17.8402 24.0984 17.1602 23.4184 17.1602 22.5884Z" fill="url(#paint0_linear_601_32121)"/>
<path fill-rule="evenodd" clip-rule="evenodd" d="M20.1907 8.34933C20.8007 8.34933 21.2007 8.55933 21.6007 9.01933C22.0007 9.47933 22.0707 10.1393 21.9807 10.7383L21.0307 17.2983C20.8507 18.5593 19.7707 19.4883 18.5007 19.4883H7.59074C6.26074 19.4883 5.16074 18.4683 5.05074 17.1493L4.13074 6.24833L2.62074 5.98833C2.22074 5.91833 1.94074 5.52833 2.01074 5.12833C2.08074 4.71833 2.47074 4.44833 2.88074 4.50833L5.26574 4.86833C5.60574 4.92933 5.85574 5.20833 5.88574 5.54833L6.07574 7.78833C6.10574 8.10933 6.36574 8.34933 6.68574 8.34933H20.1907ZM14.1307 13.5483H16.9007C17.3207 13.5483 17.6507 13.2083 17.6507 12.7983C17.6507 12.3783 17.3207 12.0483 16.9007 12.0483H14.1307C13.7107 12.0483 13.3807 12.3783 13.3807 12.7983C13.3807 13.2083 13.7107 13.5483 14.1307 13.5483Z" fill="url(#paint1_linear_601_32121)"/>
</g>
<circle cx="21.5" cy="6.5" r="6" fill="#FF4B4B" stroke="white"/>
<path d="M19.729 10H21.205L23.77 4.42V3.34H19.108V4.519H22.276L19.729 10Z" fill="white"/>
<defs>
<linearGradient id="paint0_linear_601_32121" x1="5.91016" y1="20.8823" x2="16.9204" y2="28.9219" gradientUnits="userSpaceOnUse">
<stop stop-color="#53E88B"/>
<stop offset="1" stop-color="#15BE77"/>
</linearGradient>
<linearGradient id="paint1_linear_601_32121" x1="2" y1="3.57966" x2="24.6895" y2="8.27417" gradientUnits="userSpaceOnUse">
<stop stop-color="#53E88B"/>
<stop offset="1" stop-color="#15BE77"/>
</linearGradient>
</defs>
</svg>
