<svg width="78" height="78" viewBox="0 0 78 78" fill="none" xmlns="http://www.w3.org/2000/svg">
<circle opacity="0.1" cx="39" cy="39" r="39" fill="url(#paint0_linear_601_29438)"/>
<path opacity="0.4" fill-rule="evenodd" clip-rule="evenodd" d="M43.8216 33.4452C43.8444 33.6118 43.8658 33.7687 43.8773 33.9765L31.8619 45.9905H31.584C29.824 45.9905 28.5404 44.7467 28.3022 42.815C28.0376 40.8832 28.0905 37.5754 28.3022 35.8156C28.5537 33.9897 29.9034 32.7327 31.584 32.7327H33.8733L38.2401 29.159C38.7694 28.7104 39.709 28.287 40.4368 28.2725C41.7601 28.2725 42.9775 29.2 43.4142 30.6819C43.5862 31.3024 43.6524 31.9256 43.7053 32.5197L43.8111 33.3678C43.8147 33.394 43.8182 33.4197 43.8216 33.4452ZM42.6002 41.1641C42.7802 40.9881 43.1785 40.8638 43.3584 40.9087C43.8454 41.0331 43.9394 41.7304 43.9327 42.2782C43.9102 43.8686 43.856 44.9747 43.7713 45.6588L43.7118 46.2224L43.7107 46.233C43.6541 46.8 43.5956 47.3867 43.4286 48.0126C42.9866 49.4919 41.8049 50.4525 40.4631 50.4525C40.4181 50.4525 40.3744 50.4525 40.3294 50.4511C39.5884 50.4511 38.7825 50.0066 38.326 49.6189L36.6997 48.3606C36.083 47.9015 36.2643 47.1671 36.611 46.7424C36.8698 46.4263 39.9796 43.5723 41.6144 42.0719C42.1695 41.5624 42.5546 41.209 42.6002 41.1641Z" fill="url(#paint1_linear_601_29438)"/>
<path d="M51.1594 28.0872C50.6923 27.636 49.9751 27.6387 49.5252 28.0886L28.0879 49.5232C27.6367 49.9744 27.6367 50.6929 28.0919 51.1652C28.3248 51.3809 28.6133 51.5 28.9057 51.5C29.2048 51.5 29.5118 51.3743 29.7248 51.1613L51.1607 29.7266C51.6133 29.2741 51.6133 28.5411 51.1594 28.0872Z" fill="url(#paint2_linear_601_29438)"/>
<defs>
<linearGradient id="paint0_linear_601_29438" x1="-1.10608e-07" y1="-4.78947" x2="90.0436" y2="9.16146" gradientUnits="userSpaceOnUse">
<stop stop-color="#53E88B"/>
<stop offset="1" stop-color="#15BE77"/>
</linearGradient>
<linearGradient id="paint1_linear_601_29438" x1="28.123" y1="26.9105" x2="46.5871" y2="28.9497" gradientUnits="userSpaceOnUse">
<stop stop-color="#53E88B"/>
<stop offset="1" stop-color="#15BE77"/>
</linearGradient>
<linearGradient id="paint2_linear_601_29438" x1="27.75" y1="26.2917" x2="55.1671" y2="30.5395" gradientUnits="userSpaceOnUse">
<stop stop-color="#53E88B"/>
<stop offset="1" stop-color="#15BE77"/>
</linearGradient>
</defs>
</svg>
