<svg width="78" height="78" viewBox="0 0 78 78" fill="none" xmlns="http://www.w3.org/2000/svg">
<circle opacity="0.1" cx="39" cy="39" r="39" fill="url(#paint0_linear_601_29848)"/>
<path d="M40.3571 33.4506C40.3068 32.9642 40.2543 32.4596 40.1254 31.9561C39.7741 30.7515 38.801 30 37.7576 30C37.1757 29.9979 36.4395 30.3564 36.0222 30.7193L32.5629 33.617H30.7519C29.4192 33.617 28.3475 34.6444 28.1451 36.127C27.9732 37.5506 27.9312 40.2379 28.1451 41.8042C28.3307 43.3706 29.3542 44.383 30.7519 44.383H32.5629L36.0893 47.3236C36.4511 47.6382 37.0897 47.9989 37.6769 47.9989C37.7146 48 37.7482 48 37.7817 48C38.845 48 39.7814 47.2206 40.1327 46.0192C40.2659 45.5082 40.312 45.0293 40.3571 44.5666L40.4043 44.1082C40.5846 42.6213 40.5846 35.3691 40.4043 33.8929L40.3571 33.4506Z" fill="url(#paint1_linear_601_29848)"/>
<path opacity="0.4" d="M44.4068 33.4942C44.1185 33.069 43.547 32.9628 43.1286 33.258C42.7144 33.5554 42.6117 34.1416 42.9 34.5656C43.7022 35.7477 44.1437 37.3216 44.1437 38.9996C44.1437 40.6766 43.7022 42.2515 42.9 43.4336C42.6117 43.8577 42.7144 44.4438 43.1297 44.7412C43.2848 44.8507 43.4663 44.9087 43.6529 44.9087C43.9539 44.9087 44.2349 44.7573 44.4068 44.505C45.4198 43.0127 45.9787 41.0577 45.9787 38.9996C45.9787 36.9415 45.4198 34.9865 44.4068 33.4942Z" fill="url(#paint2_linear_601_29848)"/>
<path opacity="0.4" d="M47.5682 30.4573C47.2819 30.0332 46.7083 29.9248 46.291 30.2211C45.8768 30.5185 45.774 31.1046 46.0613 31.5287C47.4182 33.5278 48.1659 36.1817 48.1659 38.9999C48.1659 41.8192 47.4182 44.4731 46.0613 46.4722C45.774 46.8973 45.8768 47.4824 46.292 47.7798C46.4472 47.8893 46.6276 47.9473 46.8142 47.9473C47.1152 47.9473 47.3972 47.7959 47.5682 47.5436C49.1369 45.2343 50.0009 42.2003 50.0009 38.9999C50.0009 35.8016 49.1369 32.7666 47.5682 30.4573Z" fill="url(#paint3_linear_601_29848)"/>
<defs>
<linearGradient id="paint0_linear_601_29848" x1="-1.10608e-07" y1="-4.78947" x2="90.0436" y2="9.16146" gradientUnits="userSpaceOnUse">
<stop stop-color="#53E88B"/>
<stop offset="1" stop-color="#15BE77"/>
</linearGradient>
<linearGradient id="paint1_linear_601_29848" x1="28" y1="28.8947" x2="42.6525" y2="30.4762" gradientUnits="userSpaceOnUse">
<stop stop-color="#53E88B"/>
<stop offset="1" stop-color="#15BE77"/>
</linearGradient>
<linearGradient id="paint2_linear_601_29848" x1="42.7363" y1="32.3652" x2="46.5623" y2="32.5278" gradientUnits="userSpaceOnUse">
<stop stop-color="#53E88B"/>
<stop offset="1" stop-color="#15BE77"/>
</linearGradient>
<linearGradient id="paint3_linear_601_29848" x1="45.8984" y1="28.955" x2="50.7419" y2="29.127" gradientUnits="userSpaceOnUse">
<stop stop-color="#53E88B"/>
<stop offset="1" stop-color="#15BE77"/>
</linearGradient>
</defs>
</svg>
