<svg width="57" height="58" viewBox="0 0 57 58" fill="none" xmlns="http://www.w3.org/2000/svg">
<g clip-path="url(#clip0_601_26773)">
<path d="M30 53C41.0457 53 50 44.0457 50 33C50 21.9543 41.0457 13 30 13C18.9543 13 10 21.9543 10 33C10 44.0457 18.9543 53 30 53Z" fill="#32BA7C"/>
<path d="M24.8906 42.022L35.1745 52.3059C43.6919 50.0346 50.001 42.2744 50.001 32.9999C50.001 32.8106 50.001 32.6214 50.001 32.4321L41.9253 24.9873L24.8906 42.022Z" fill="#0AA06E"/>
<path d="M30.5042 37.4794C31.3875 38.3627 31.3875 39.8769 30.5042 40.7601L28.6746 42.5898C27.7913 43.4731 26.2771 43.4731 25.3938 42.5898L17.3812 34.5141C16.4979 33.6308 16.4979 32.1166 17.3812 31.2333L19.2109 29.4037C20.0941 28.5204 21.6083 28.5204 22.4916 29.4037L30.5042 37.4794Z" fill="white"/>
<path d="M37.5074 23.5365C38.3907 22.6532 39.9049 22.6532 40.7882 23.5365L42.6178 25.3661C43.5011 26.2494 43.5011 27.7636 42.6178 28.6469L28.7377 42.4639C27.8544 43.3472 26.3402 43.3472 25.457 42.4639L23.6273 40.6343C22.744 39.751 22.744 38.2368 23.6273 37.3535L37.5074 23.5365Z" fill="white"/>
</g>
<circle cx="55" cy="5" r="2" fill="#32BA7C"/>
<circle cx="4" cy="1" r="1" fill="#32BA7C"/>
<circle cx="54" cy="57" r="1" fill="#32BA7C"/>
<circle cx="4.5" cy="52.5" r="4.5" fill="#32BA7C"/>
<defs>
<clipPath id="clip0_601_26773">
<rect width="40" height="40" fill="white" transform="translate(10 13)"/>
</clipPath>
</defs>
</svg>
