<svg width="54" height="51" viewBox="0 0 54 51" fill="none" xmlns="http://www.w3.org/2000/svg">
<g clip-path="url(#clip0_601_26789)">
<path d="M27 46C38.0457 46 47 37.0457 47 26C47 14.9543 38.0457 6 27 6C15.9543 6 7 14.9543 7 26C7 37.0457 15.9543 46 27 46Z" fill="#FFE14D"/>
<path d="M47 26C47 14.972 38.028 6 27 6V46C38.028 46 47 37.028 47 26Z" fill="#FFBB33"/>
<path d="M27 41.2344C18.6 41.2344 11.7656 34.4 11.7656 26C11.7656 17.6 18.6 10.7656 27 10.7656C35.4 10.7656 42.2344 17.6 42.2344 26C42.2344 34.4 35.4 41.2344 27 41.2344Z" fill="#FFBB33"/>
<path d="M42.2344 26C42.2344 17.6 35.4 10.7656 27 10.7656V41.2344C35.4 41.2344 42.2344 34.4 42.2344 26Z" fill="#E68A2E"/>
<path d="M28.1719 24.9113V20.278C29.5197 20.6087 30.5156 21.4759 30.5156 22.4727C30.5156 23.1204 31.0398 23.6445 31.6875 23.6445C32.3352 23.6445 32.8594 23.1204 32.8594 22.4727C32.8594 20.2084 30.8437 18.3153 28.1719 17.88V16.6133C28.1719 15.9655 27.6477 15.4414 27 15.4414C26.3523 15.4414 25.8281 15.9655 25.8281 16.6133V17.88C23.1563 18.3153 21.1406 20.2084 21.1406 22.4727C21.1406 24.7369 23.1563 26.63 25.8281 27.0653V31.6986C24.4803 31.3679 23.4844 30.5007 23.4844 29.5039C23.4844 28.8562 22.9602 28.332 22.3125 28.332C21.6648 28.332 21.1406 28.8562 21.1406 29.5039C21.1406 31.7681 23.1563 33.6613 25.8281 34.0966V35.3747C25.8281 36.0224 26.3523 36.5466 27 36.5466C27.6477 36.5466 28.1719 36.0224 28.1719 35.3747V34.0966C30.8437 33.6613 32.8594 31.7681 32.8594 29.5039C32.8594 27.2397 30.8437 25.3465 28.1719 24.9113ZM23.4844 22.4727C23.4844 21.4759 24.4803 20.6087 25.8281 20.278V24.6673C24.4803 24.3366 23.4844 23.4694 23.4844 22.4727ZM28.1719 31.6986V27.3092C29.5197 27.6399 30.5156 28.5071 30.5156 29.5039C30.5156 30.5007 29.5197 31.3678 28.1719 31.6986Z" fill="#FFE14D"/>
<path d="M28.1719 35.3747V34.0966C30.8437 33.6613 32.8594 31.7681 32.8594 29.5039C32.8594 27.2397 30.8437 25.3466 28.1719 24.9113V20.278C29.5197 20.6087 30.5156 21.4759 30.5156 22.4727C30.5156 23.1204 31.0398 23.6445 31.6875 23.6445C32.3352 23.6445 32.8594 23.1204 32.8594 22.4727C32.8594 20.2084 30.8437 18.3153 28.1719 17.88V16.6133C28.1719 15.9655 27.6477 15.4414 27 15.4414V36.5466C27.6477 36.5466 28.1719 36.0224 28.1719 35.3747ZM28.1719 27.3091C29.5197 27.6398 30.5156 28.507 30.5156 29.5038C30.5156 30.5006 29.5197 31.3678 28.1719 31.6985V27.3091Z" fill="#FFBB33"/>
<circle cx="9.08398" cy="43.917" r="1.25" fill="#FFBB33"/>
</g>
<circle cx="2" cy="2" r="2" fill="#FFE14D"/>
<circle cx="51" cy="3" r="3" fill="#FFE14D"/>
<circle cx="50" cy="47" r="4" fill="#FFBB33"/>
<defs>
<clipPath id="clip0_601_26789">
<rect width="40" height="40" fill="white" transform="translate(7 6)"/>
</clipPath>
</defs>
</svg>
