<svg width="25" height="34" viewBox="0 0 25 34" fill="none" xmlns="http://www.w3.org/2000/svg">
<path fill-rule="evenodd" clip-rule="evenodd" d="M2.64402 30.2024L10.2371 33.2014C12.2498 33.9964 14.7474 32.4467 15.5265 30.4742L24.2256 8.44966C25.0044 6.47781 24.0052 4.23381 21.9924 3.43885L14.3994 0.439812C12.3873 -0.354898 10.1233 0.59948 9.34427 2.57197L0.645206 24.5965C-0.132579 26.5695 0.631954 29.4077 2.64402 30.2024ZM3.1844 20.0368L6.1 12.655L7.94991 13.1289L6.74867 16.1702L3.1844 20.0368ZM6.8154 17.7437C6.8154 17.7437 4.88635 20.3542 3.25551 22.5631C8.48393 26.8197 14.9177 27.2014 15.0124 27.2071L15.0134 27.2071L15.7057 21.2552L6.8154 17.7437ZM16.8877 19.9444L18.0105 17.1018L19.6861 18.0189L16.8482 25.2039L16.8877 19.9444ZM20.1167 16.9286L22.7059 10.3732L20.4882 10.8287L18.4396 16.0153L20.1167 16.9286ZM22.4364 8.11313L20.1703 9.65852L11.2781 6.14634L10.6791 3.46933L22.4364 8.11313ZM8.38206 12.0347L10.3496 7.05322L9.0426 5.20486L6.53116 11.5634L8.38206 12.0347Z" fill="#FF1D1D"/>
</svg>
