<svg width="46" height="43" viewBox="0 0 46 43" fill="none" xmlns="http://www.w3.org/2000/svg">
<g clip-path="url(#clip0_601_3425)">
<path d="M20.3132 3.6875C16.6472 3.6875 13.2827 4.97644 10.6465 7.125V30.875C13.2827 33.0236 16.6472 34.3125 20.3132 34.3125C28.7701 34.3125 35.6257 27.4569 35.6257 19C35.6257 10.5431 28.7701 3.6875 20.3132 3.6875Z" fill="#FF4155"/>
<path d="M33.8756 19C33.8756 20.4137 34.8143 21.6075 36.1018 21.9937C36.6337 22.1531 37.0006 22.6381 37.0006 23.1931V29.625C37.0006 30.3156 36.4412 30.875 35.7506 30.875H29.1505C28.7087 30.875 28.2893 30.6494 28.073 30.2638C27.8593 29.8825 27.4505 29.625 26.9824 29.625L25.7324 19L26.9824 8.375C27.4505 8.375 27.8593 8.1175 28.073 7.73625C28.2893 7.35062 28.7087 7.125 29.1505 7.125H35.7506C36.4412 7.125 37.0006 7.68437 37.0006 8.375V14.8069C37.0006 15.3619 36.6337 15.8469 36.1018 16.0063C34.8143 16.3925 33.8756 17.5863 33.8756 19Z" fill="#FFB332"/>
<path d="M30.7324 29.625V8.375C30.7324 7.68437 31.2918 7.125 31.9824 7.125H29.1505C28.7087 7.125 28.2893 7.35062 28.073 7.73625C27.8593 8.1175 27.4505 8.375 26.9824 8.375L25.7324 19L26.9824 29.625C27.4505 29.625 27.8593 29.8825 28.073 30.2638C28.2893 30.6494 28.7087 30.875 29.1505 30.875H31.9824C31.2918 30.875 30.7324 30.3156 30.7324 29.625Z" fill="#FF9433"/>
<path d="M26.9819 29.625C26.5131 29.625 26.105 29.8825 25.8913 30.2638C25.675 30.6494 25.255 30.875 24.8137 30.875H10.645C7.2 28.0675 5 23.7906 5 19C5 14.2094 7.2 9.9325 10.645 7.125H24.8137C25.255 7.125 25.675 7.35062 25.8913 7.73625C26.105 8.1175 26.5131 8.375 26.9819 8.375V29.625Z" fill="#FFDD40"/>
<path d="M10.6458 30.875H18.3337C16.9531 30.875 15.8337 29.7557 15.8337 28.375V9.625C15.8337 8.24431 16.9531 7.125 18.3337 7.125H10.6458C7.20069 9.93281 5 14.2091 5 19C5 23.7909 7.20069 28.0672 10.6458 30.875Z" fill="#FFC839"/>
<path d="M11.5283 26.3471C11.3181 26.3471 11.105 26.2939 10.9093 26.1821C10.3099 25.8396 10.1017 25.076 10.4442 24.4766L17.4125 12.2823C17.755 11.6829 18.5185 11.4748 19.118 11.8172C19.7174 12.1597 19.9256 12.9233 19.5831 13.5227L12.6148 25.717C12.3841 26.1208 11.9623 26.3471 11.5283 26.3471Z" fill="white"/>
<path d="M10.1626 19.075C8.30567 19.075 6.79492 17.4103 6.79492 15.3642C6.79492 13.318 8.30567 11.6533 10.1626 11.6533C12.0196 11.6533 13.5304 13.318 13.5304 15.3642C13.5304 17.4103 12.0196 19.075 10.1626 19.075ZM10.1626 14.1533C9.6923 14.1533 9.29492 14.7078 9.29492 15.3642C9.29492 16.0205 9.69224 16.575 10.1626 16.575C10.633 16.575 11.0304 16.0205 11.0304 15.3642C11.0304 14.7078 10.6329 14.1533 10.1626 14.1533Z" fill="white"/>
<path d="M19.8638 26.3466C18.0068 26.3466 16.4961 24.6819 16.4961 22.6357C16.4961 20.5895 18.0068 18.9248 19.8638 18.9248C21.7208 18.9248 23.2315 20.5895 23.2315 22.6357C23.2315 24.6819 21.7208 26.3466 19.8638 26.3466ZM19.8638 21.4248C19.3935 21.4248 18.9961 21.9793 18.9961 22.6357C18.9961 23.2921 19.3935 23.8466 19.8638 23.8466C20.3342 23.8466 20.7315 23.2921 20.7315 22.6357C20.7315 21.9793 20.3342 21.4248 19.8638 21.4248Z" fill="white"/>
<path d="M19.7097 21.4688C19.0748 21.3925 18.5825 20.853 18.5825 20.1977C18.5825 19.6167 18.9694 19.1268 19.4994 18.9697C17.8132 19.1706 16.4961 20.748 16.4961 22.6585C16.4961 24.569 17.8133 26.1464 19.4994 26.3473C18.9694 26.1902 18.5825 25.7003 18.5825 25.1194C18.5825 24.464 19.0748 23.9245 19.7097 23.8482C19.3099 23.7433 18.9961 23.2415 18.9961 22.6585C18.9961 22.0754 19.3099 21.5737 19.7097 21.4688Z" fill="#D3DCFB"/>
<path d="M10.0085 14.1729C9.37367 14.0966 8.88136 13.5571 8.88136 12.9018C8.88136 12.3208 9.26823 11.8309 9.79823 11.6738C8.11205 11.8747 6.79492 13.4521 6.79492 15.3626C6.79492 17.2731 8.11211 18.8505 9.79823 19.0514C9.26823 18.8943 8.88136 18.4044 8.88136 17.8235C8.88136 17.1681 9.37367 16.6286 10.0085 16.5523C9.60873 16.4474 9.29492 15.9456 9.29492 15.3626C9.29492 14.7796 9.60873 14.2779 10.0085 14.1729Z" fill="#D3DCFB"/>
<path d="M15.0137 20.2811C14.306 20.2811 13.7324 19.7075 13.7324 18.9998C13.7324 18.869 13.7522 18.7429 13.7887 18.624L10.4442 24.4768C10.1017 25.0762 10.3099 25.8398 10.9093 26.1823C11.105 26.2941 11.318 26.3473 11.5283 26.3473C11.9622 26.3473 12.384 26.121 12.6148 25.7172L15.9627 19.8585C15.7284 20.1174 15.3905 20.2811 15.0137 20.2811Z" fill="#D3DCFB"/>
<path d="M25.2637 14.7363H22.7637C22.5047 14.7363 22.2949 14.5265 22.2949 14.2676C22.2949 14.0086 22.5047 13.7988 22.7637 13.7988H25.2637C25.5226 13.7988 25.7324 14.0086 25.7324 14.2676C25.7324 14.5265 25.5226 14.7363 25.2637 14.7363Z" fill="#FFC839"/>
<path d="M25.2637 17.2363H22.7637C22.5047 17.2363 22.2949 17.0265 22.2949 16.7676C22.2949 16.5086 22.5047 16.2988 22.7637 16.2988H25.2637C25.5226 16.2988 25.7324 16.5086 25.7324 16.7676C25.7324 17.0265 25.5226 17.2363 25.2637 17.2363Z" fill="#FFC839"/>
<path d="M24.7949 12.125C25.3127 12.125 25.7324 11.7053 25.7324 11.1875C25.7324 10.6697 25.3127 10.25 24.7949 10.25C24.2772 10.25 23.8574 10.6697 23.8574 11.1875C23.8574 11.7053 24.2772 12.125 24.7949 12.125Z" fill="#FFC839"/>
<path d="M31.2012 25.7188H28.7012C28.4422 25.7188 28.2324 25.5089 28.2324 25.25C28.2324 24.9911 28.4422 24.7812 28.7012 24.7812H31.2012C31.4601 24.7812 31.6699 24.9911 31.6699 25.25C31.6699 25.5089 31.4601 25.7188 31.2012 25.7188Z" fill="white"/>
<path d="M31.2012 28.2188H28.7012C28.4422 28.2188 28.2324 28.0089 28.2324 27.75C28.2324 27.4911 28.4422 27.2812 28.7012 27.2812H31.2012C31.4601 27.2812 31.6699 27.4911 31.6699 27.75C31.6699 28.0089 31.4601 28.2188 31.2012 28.2188Z" fill="white"/>
<path d="M29.1699 23.1074C29.6877 23.1074 30.1074 22.6877 30.1074 22.1699C30.1074 21.6522 29.6877 21.2324 29.1699 21.2324C28.6522 21.2324 28.2324 21.6522 28.2324 22.1699C28.2324 22.6877 28.6522 23.1074 29.1699 23.1074Z" fill="white"/>
<circle cx="34" cy="4" r="1" fill="#FF4155"/>
</g>
<circle cx="3" cy="3" r="3" fill="#FF4155"/>
<circle cx="4" cy="34" r="2" fill="#FF4155"/>
<circle cx="26.5" cy="42.5" r="0.5" fill="#FF4155"/>
<circle cx="43.5" cy="21.5" r="2.5" fill="#FF4155"/>
<defs>
<clipPath id="clip0_601_3425">
<rect width="32" height="32" fill="white" transform="translate(5 3)"/>
</clipPath>
</defs>
</svg>
